HIERARCHY
ROOT Hips
{
	OFFSET	0.00	0.00	0.00
	CHANNELS 6 Xposition Yposition Zposition Zrotation Xrotation Yrotation
	JOINT LeftUpLeg
	{
		OFFSET	 0.126116	-0.014019	-0.065224
		CHANNELS 3 Zrotation Xrotation Yrotation
		JOINT LeftLeg
		{
			OFFSET	 0.000000	 0.000000	 0.569914
			CHANNELS 3 Zrotation Xrotation Yrotation
			JOINT LeftFoot
			{
				OFFSET	 0.000000	 0.000000	 0.544423
				CHANNELS 3 Zrotation Xrotation Yrotation
				JOINT LeftToeBase
				{
					OFFSET	 0.000000	 0.000000	 0.207117
					CHANNELS 3 Zrotation Xrotation Yrotation
					End Site
					{
						OFFSET	 0.000000	 0.000000	 0.207117
					}
				}
			}
		}
	}
	JOINT RightUpLeg
	{
		OFFSET	-0.124023	-0.008373	-0.065224
		CHANNELS 3 Zrotation Xrotation Yrotation
		JOINT RightLeg
		{
			OFFSET	 0.000000	 0.000000	 0.570047
			CHANNELS 3 Zrotation Xrotation Yrotation
			JOINT RightFoot
			{
				OFFSET	 0.000000	 0.000000	 0.544354
				CHANNELS 3 Zrotation Xrotation Yrotation
				JOINT RightToeBase
				{
					OFFSET	 0.000000	 0.000000	 0.207540
					CHANNELS 3 Zrotation Xrotation Yrotation
					End Site
					{
						OFFSET	 0.000000	 0.000000	 0.207540
					}
				}
			}
		}
	}
	JOINT Spine
	{
		OFFSET	 0.000184	-0.007763	 0.117403
		CHANNELS 3 Zrotation Xrotation Yrotation
		JOINT Spine1
		{
			OFFSET	 0.000000	 0.000000	 0.137269
			CHANNELS 3 Zrotation Xrotation Yrotation
			JOINT Spine2
			{
				OFFSET	 0.000000	 0.000000	 0.156879
				CHANNELS 3 Zrotation Xrotation Yrotation
				JOINT LeftShoulder
				{
					OFFSET	 0.080501	-0.002496	 0.160144
					CHANNELS 3 Zrotation Xrotation Yrotation
					JOINT LeftArm
					{
						OFFSET	 0.000000	 0.000000	 0.164363
						CHANNELS 3 Zrotation Xrotation Yrotation
						JOINT LeftForeArm
						{
							OFFSET	 0.000000	 0.000000	 0.364576
							CHANNELS 3 Zrotation Xrotation Yrotation
							JOINT LeftHand
							{
								OFFSET	 0.000000	 0.000000	 0.360812
								CHANNELS 3 Zrotation Xrotation Yrotation
								JOINT LeftHandIndex1
								{
									OFFSET	 0.000000	 0.000000	 0.086006
									CHANNELS 3 Zrotation Xrotation Yrotation
									JOINT LeftHandIndex2
									{
										OFFSET	 0.000000	 0.000000	 0.047236
										CHANNELS 3 Zrotation Xrotation Yrotation
										JOINT LeftHandIndex3
										{
											OFFSET	-0.004284	-0.000551	 0.038166
											CHANNELS 3 Zrotation Xrotation Yrotation
											End Site
											{
												OFFSET	-0.004284	-0.000551	 0.038166
											}
										}
									}
								}
							}
						}
					}
				}
				JOINT Neck
				{
					OFFSET	 0.000000	 0.000000	 0.176489
					CHANNELS 3 Zrotation Xrotation Yrotation
					JOINT Head
					{
						OFFSET	 0.000000	-0.001747	 0.077940
						CHANNELS 3 Zrotation Xrotation Yrotation
						End Site
						{
							OFFSET	 0.000000	-0.001747	 0.077940
						}
					}
				}
				JOINT RightShoulder
				{
					OFFSET	-0.080363	 0.000306	 0.159706
					CHANNELS 3 Zrotation Xrotation Yrotation
					JOINT RightArm
					{
						OFFSET	 0.000000	 0.000000	 0.164196
						CHANNELS 3 Zrotation Xrotation Yrotation
						JOINT RightForeArm
						{
							OFFSET	 0.000000	 0.000000	 0.365611
							CHANNELS 3 Zrotation Xrotation Yrotation
							JOINT RightHand
							{
								OFFSET	 0.000000	 0.000000	 0.360648
								CHANNELS 3 Zrotation Xrotation Yrotation
								JOINT RightHandIndex1
								{
									OFFSET	 0.000000	 0.000000	 0.069977
									CHANNELS 3 Zrotation Xrotation Yrotation
									JOINT RightHandIndex2
									{
										OFFSET	 0.000000	 0.000000	 0.052305
										CHANNELS 3 Zrotation Xrotation Yrotation
										JOINT RightHandIndex3
										{
											OFFSET	 0.009002	-0.000782	 0.042196
											CHANNELS 3 Zrotation Xrotation Yrotation
											End Site
											{
												OFFSET	 0.009002	-0.000782	 0.042196
											}
										}
									}
								}
							}
						}
					}
				}
			}
		}
	}
}
MOTION
Frames:    5
Frame Time: 0.03333334
-0.000197	 0.009914	 1.227780	-0.002027	 0.002130	 0.022960	 25.281320	-14.348310	 175.527200	 0.893471	-33.413700	-2.175045	-23.641870	 79.552770	 18.388800	-2.385833	 28.452760	 0.000004	-25.410350	-14.027230	-175.423400	-0.896887	-33.275930	 2.123894	 24.519170	 79.844640	-19.438290	 2.384658	 28.388730	 0.000004	 36.794940	 3.717172	 0.127911	-0.214697	 0.220433	-0.129868	 0.651777	-0.282473	 0.123166	-91.776140	 78.527470	 179.999900	 39.328740	 29.189520	-52.960810	-26.698550	 2.872591	-7.969297	-43.011220	 2.257761	-3.809659	-2.635965	 4.993658	 6.788941	-5.165319	 0.784187	 3.516649	-5.225038	 0.466231	 0.424329	-0.000002	-3.783157	-0.089647	 0.643254	 7.104727	-0.039948	 89.782110	 78.203900	 180.000000	 2.968804	 12.648970	 107.753200	-15.735760	 2.569543	 8.118401	 17.904630	-0.779123	-6.094317	 6.112037	 4.509576	-0.364401	 4.968462	 1.518543	-9.347576	 5.168945	 0.703820	 2.021906
-0.000193	 0.009549	 1.228100	-0.002527	 0.002660	 0.030298	 25.284690	-14.294270	 175.516800	 0.898476	-33.303500	-2.165951	-23.514260	 79.505970	 18.258920	-2.385833	 28.452760	 0.000004	-25.415630	-13.946070	-175.419100	-0.902542	-33.148030	 2.113564	 24.421440	 79.798550	-19.340230	 2.384658	 28.388730	 0.000004	 36.277190	 3.712702	 0.141923	-0.291906	 0.234242	-0.175226	 0.885396	-0.299380	 0.166966	-91.776180	 78.527420	 180.000000	 39.304760	 29.244700	-52.961030	-24.731010	 2.344674	-7.233906	-43.221950	 2.241151	-3.808774	-2.635965	 4.993658	 6.788941	-5.165319	 0.784187	 3.516649	-5.225038	 0.466231	 0.424329	-0.000002	-3.783157	-0.089647	 0.876342	 7.092424	-0.054324	 89.782140	 78.203890	 180.000000	 2.962827	 12.708490	 107.771700	-17.755680	 2.035900	 7.374258	 18.111640	-0.874289	-6.095330	 6.112037	 4.509576	-0.364401	 4.968462	 1.518543	-9.347576	 5.168945	 0.703820	 2.021906
-0.000180	 0.009189	 1.228383	-0.002954	 0.003116	 0.037123	 25.287560	-14.246060	 175.507000	 0.902882	-33.205780	-2.157909	-23.403760	 79.464710	 18.146450	-2.385833	 28.452760	 0.000004	-25.420330	-13.871830	-175.414700	-0.907587	-33.033290	 2.104328	 24.340650	 79.758060	-19.259380	 2.384658	 28.388730	 0.000004	 35.321090	 3.707195	 0.155547	-0.366555	 0.251942	-0.218551	 1.111188	-0.320707	 0.209264	-91.776210	 78.527420	-180.000000	 39.293900	 29.309590	-52.983050	-22.771380	 1.875183	-6.479627	-43.417090	 2.222104	-3.809358	-2.635965	 4.993658	 6.788941	-5.165319	 0.784187	 3.516649	-5.225038	 0.466231	 0.424329	-0.000002	-3.783157	-0.089647	 1.101611	 7.076951	-0.068136	 89.782070	 78.203900	-180.000000	 2.881486	 12.761550	 107.767300	-19.768160	 1.561778	 6.606683	 18.305350	-0.974984	-6.095544	 6.112037	 4.509576	-0.364401	 4.968462	 1.518543	-9.347576	 5.168945	 0.703820	 2.021906
-0.000156	 0.008828	 1.228594	-0.003372	 0.003537	 0.043609	 25.289440	-14.210000	 175.498100	 0.906136	-33.133470	-2.151970	-23.326830	 79.434980	 18.068230	-2.385833	 28.452760	 0.000004	-25.423890	-13.810600	-175.410800	-0.911476	-32.944490	 2.097195	 24.294300	 79.729080	-19.213570	 2.384658	 28.388730	 0.000004	 33.982620	 3.700757	 0.168685	-0.438588	 0.273090	-0.260052	 1.329115	-0.346003	 0.250156	-91.776060	 78.527470	 179.999900	 39.291970	 29.383900	-53.021290	-20.823320	 1.464465	-5.710239	-43.598640	 2.200863	-3.811227	-2.635965	 4.993658	 6.788941	-5.165319	 0.784187	 3.516649	-5.225038	 0.466231	 0.424329	-0.000002	-3.783157	-0.089647	 1.318892	 7.058609	-0.081361	 89.782080	 78.203870	-180.000000	 2.888760	 12.834470	 107.760700	-21.772690	 1.146603	 5.826905	 18.487750	-1.080227	-6.094834	 6.112037	 4.509576	-0.364401	 4.968462	 1.518543	-9.347576	 5.168945	 0.703820	 2.021906
-0.000124	 0.008456	 1.228750	-0.003758	 0.003958	 0.049994	 25.290450	-14.183060	 175.489600	 0.908513	-33.080360	-2.147609	-23.275580	 79.414090	 18.016160	-2.385833	 28.452760	 0.000004	-25.426600	-13.758450	-175.407000	-0.914503	-32.874870	 2.091616	 24.275420	 79.708930	-19.195750	 2.384658	 28.388730	 0.000004	 32.239750	 3.693180	 0.181816	-0.510691	 0.298294	-0.301321	 1.547290	-0.376036	 0.291248	-91.776110	 78.527470	 179.999900	 39.302020	 29.468690	-53.079270	-18.813860	 1.100392	-4.900787	-43.774710	 2.176613	-3.814438	-2.635965	 4.993658	 6.788941	-5.165319	 0.784187	 3.516649	-5.225038	 0.466231	 0.424329	-0.000002	-3.783157	-0.089647	 1.536349	 7.036881	-0.094483	 89.782120	 78.203900	 180.000000	 2.932079	 12.918260	 107.747900	-23.839610	 0.777630	 5.005860	 18.663690	-1.186065	-6.093326	 6.112037	 4.509576	-0.364401	 4.968462	 1.518543	-9.347576	 5.168945	 0.703820	 2.021906
